<svg xmlns="http://www.w3.org/2000/svg" viewBox="0 0 30.36 55.2"><title>note16th</title><g id="レイヤー_2" data-name="レイヤー 2"><g id="レイヤー_1-2" data-name="レイヤー 1"><path d="M30.36,22.57c0-4.77-4.08-8.72-7.74-11.41-3.37-2.47-6.42-5.72-6.89-10L15.66,0h-1.5V43.26a8.82,8.82,0,0,0-3.78-.78C5.46,42.48,0,46.5,0,50.76,0,53.7,2.82,55.2,5.58,55.2c5.7,0,11-4,11-10.2V22.68c6.24,1.08,11,5.39,11,10.82,0,3.75-2.46,7.68-3.78,9.84h1.56c2.88-3.61,5-7.5,5-11.43a8.28,8.28,0,0,0-1.22-4.17A9.47,9.47,0,0,0,30.36,22.57Zm-2.81,3a26.38,26.38,0,0,0-4.92-4.19A17,17,0,0,1,16.56,15v-.11l-.13-2.11c5.88,1.42,11,5.92,11.11,11.52C27.55,24.77,27.55,25.18,27.54,25.56Z"/></g></g></svg>